<svg xmlns="http://www.w3.org/2000/svg" xmlns:xlink="http://www.w3.org/1999/xlink" width="500" zoomAndPan="magnify" viewBox="0 0 375 374.999991" height="500" preserveAspectRatio="xMidYMid meet" version="1.0"><defs><g/><clipPath id="010f53372a"><path d="M 9.003906 157.03125 L 72.753906 157.03125 L 72.753906 220.78125 L 9.003906 220.78125 Z M 9.003906 157.03125 " clip-rule="nonzero"/></clipPath></defs><g clip-path="url(#010f53372a)"><path fill="#ffffff" d="M 64.242188 157.03125 L 17.851562 157.03125 C 17.269531 157.03125 16.695312 157.089844 16.125 157.203125 C 15.554688 157.316406 15.003906 157.484375 14.464844 157.707031 C 13.929688 157.929688 13.417969 158.199219 12.933594 158.523438 C 12.453125 158.847656 12.003906 159.214844 11.59375 159.625 C 11.183594 160.035156 10.816406 160.484375 10.492188 160.964844 C 10.171875 161.449219 9.898438 161.960938 9.675781 162.496094 C 9.453125 163.03125 9.285156 163.585938 9.171875 164.15625 C 9.058594 164.726562 9.003906 165.300781 9.003906 165.882812 L 9.003906 197.011719 C 9.003906 197.59375 9.058594 198.167969 9.171875 198.738281 C 9.285156 199.308594 9.453125 199.863281 9.675781 200.398438 C 9.898438 200.9375 10.171875 201.445312 10.492188 201.929688 C 10.816406 202.414062 11.183594 202.859375 11.59375 203.269531 C 12.003906 203.679688 12.453125 204.046875 12.933594 204.371094 C 13.417969 204.695312 13.929688 204.964844 14.464844 205.1875 C 15.003906 205.410156 15.554688 205.578125 16.125 205.691406 C 16.695312 205.804688 17.269531 205.863281 17.851562 205.863281 L 41.046875 205.863281 L 58.382812 220.757812 C 58.671875 221 59.007812 221.121094 59.390625 221.121094 C 59.613281 221.113281 59.828125 221.0625 60.03125 220.96875 C 60.296875 220.847656 60.507812 220.660156 60.664062 220.410156 C 60.820312 220.160156 60.894531 219.890625 60.882812 219.597656 L 60.882812 205.863281 L 64.242188 205.863281 C 64.824219 205.863281 65.398438 205.804688 65.96875 205.691406 C 66.539062 205.578125 67.089844 205.410156 67.628906 205.1875 C 68.164062 204.964844 68.675781 204.695312 69.160156 204.371094 C 69.640625 204.046875 70.089844 203.679688 70.5 203.269531 C 70.910156 202.859375 71.277344 202.414062 71.601562 201.929688 C 71.921875 201.445312 72.195312 200.9375 72.417969 200.398438 C 72.640625 199.863281 72.808594 199.308594 72.921875 198.738281 C 73.035156 198.167969 73.09375 197.59375 73.09375 197.011719 L 73.09375 165.882812 C 73.09375 165.300781 73.035156 164.726562 72.921875 164.15625 C 72.808594 163.585938 72.640625 163.03125 72.417969 162.496094 C 72.195312 161.960938 71.921875 161.449219 71.601562 160.964844 C 71.277344 160.484375 70.910156 160.035156 70.5 159.625 C 70.089844 159.214844 69.640625 158.847656 69.160156 158.523438 C 68.675781 158.199219 68.164062 157.929688 67.628906 157.707031 C 67.089844 157.484375 66.539062 157.316406 65.96875 157.203125 C 65.398438 157.089844 64.824219 157.03125 64.242188 157.03125 Z M 70.039062 197.011719 C 70.039062 197.394531 70.003906 197.769531 69.929688 198.144531 C 69.855469 198.515625 69.746094 198.878906 69.597656 199.230469 C 69.453125 199.582031 69.273438 199.917969 69.0625 200.234375 C 68.851562 200.550781 68.609375 200.84375 68.339844 201.113281 C 68.074219 201.382812 67.78125 201.621094 67.464844 201.832031 C 67.144531 202.046875 66.8125 202.222656 66.460938 202.371094 C 66.109375 202.515625 65.746094 202.625 65.371094 202.699219 C 65 202.773438 64.621094 202.8125 64.242188 202.8125 L 59.359375 202.8125 C 59.15625 202.8125 58.960938 202.847656 58.773438 202.925781 C 58.585938 203.003906 58.421875 203.113281 58.28125 203.257812 C 58.136719 203.402344 58.027344 203.566406 57.949219 203.753906 C 57.871094 203.941406 57.832031 204.132812 57.832031 204.335938 L 57.832031 216.269531 L 42.574219 203.175781 C 42.28125 202.929688 41.949219 202.808594 41.566406 202.8125 L 17.851562 202.8125 C 17.472656 202.8125 17.09375 202.773438 16.722656 202.699219 C 16.347656 202.625 15.984375 202.515625 15.632812 202.371094 C 15.28125 202.222656 14.949219 202.046875 14.632812 201.832031 C 14.316406 201.621094 14.023438 201.382812 13.753906 201.113281 C 13.484375 200.84375 13.242188 200.550781 13.03125 200.234375 C 12.820312 199.917969 12.640625 199.582031 12.496094 199.230469 C 12.351562 198.878906 12.238281 198.515625 12.164062 198.144531 C 12.089844 197.769531 12.054688 197.394531 12.054688 197.011719 L 12.054688 165.882812 C 12.054688 165.503906 12.089844 165.125 12.164062 164.75 C 12.238281 164.378906 12.351562 164.015625 12.496094 163.664062 C 12.640625 163.3125 12.820312 162.976562 13.03125 162.660156 C 13.242188 162.34375 13.484375 162.050781 13.753906 161.78125 C 14.023438 161.511719 14.316406 161.273438 14.632812 161.0625 C 14.949219 160.851562 15.28125 160.671875 15.632812 160.527344 C 15.984375 160.378906 16.347656 160.269531 16.722656 160.195312 C 17.09375 160.121094 17.472656 160.085938 17.851562 160.085938 L 64.242188 160.085938 C 64.621094 160.085938 65 160.121094 65.371094 160.195312 C 65.746094 160.269531 66.109375 160.378906 66.460938 160.527344 C 66.8125 160.671875 67.144531 160.851562 67.464844 161.0625 C 67.78125 161.273438 68.074219 161.511719 68.339844 161.78125 C 68.609375 162.050781 68.851562 162.34375 69.0625 162.660156 C 69.273438 162.976562 69.453125 163.3125 69.597656 163.664062 C 69.746094 164.015625 69.855469 164.378906 69.929688 164.75 C 70.003906 165.125 70.039062 165.503906 70.039062 165.882812 Z M 70.039062 197.011719 " fill-opacity="1" fill-rule="nonzero"/></g><path fill="#ffffff" d="M 50.203125 179.921875 L 48.675781 179.921875 L 48.675781 173.816406 C 48.675781 173.316406 48.628906 172.820312 48.53125 172.328125 C 48.433594 171.839844 48.289062 171.359375 48.097656 170.898438 C 47.902344 170.433594 47.667969 169.996094 47.390625 169.578125 C 47.113281 169.164062 46.796875 168.777344 46.441406 168.421875 C 46.085938 168.070312 45.703125 167.753906 45.285156 167.472656 C 44.871094 167.195312 44.429688 166.960938 43.964844 166.769531 C 43.503906 166.578125 43.027344 166.433594 42.535156 166.335938 C 42.042969 166.238281 41.546875 166.1875 41.046875 166.1875 C 40.546875 166.1875 40.050781 166.238281 39.558594 166.335938 C 39.066406 166.433594 38.589844 166.578125 38.128906 166.769531 C 37.664062 166.960938 37.226562 167.195312 36.808594 167.472656 C 36.390625 167.753906 36.007812 168.070312 35.652344 168.421875 C 35.296875 168.777344 34.980469 169.164062 34.703125 169.578125 C 34.425781 169.996094 34.191406 170.433594 34 170.898438 C 33.804688 171.359375 33.660156 171.839844 33.5625 172.328125 C 33.464844 172.820312 33.417969 173.316406 33.417969 173.816406 L 33.417969 179.921875 L 31.890625 179.921875 C 31.6875 179.921875 31.496094 179.960938 31.308594 180.039062 C 31.121094 180.113281 30.957031 180.226562 30.8125 180.367188 C 30.667969 180.511719 30.558594 180.675781 30.480469 180.863281 C 30.402344 181.050781 30.367188 181.246094 30.367188 181.449219 L 30.367188 195.179688 C 30.367188 195.382812 30.402344 195.578125 30.480469 195.765625 C 30.558594 195.953125 30.667969 196.117188 30.8125 196.261719 C 30.957031 196.402344 31.121094 196.511719 31.308594 196.589844 C 31.496094 196.667969 31.6875 196.707031 31.890625 196.707031 L 50.203125 196.707031 C 50.40625 196.707031 50.601562 196.667969 50.785156 196.589844 C 50.972656 196.511719 51.136719 196.402344 51.28125 196.261719 C 51.425781 196.117188 51.535156 195.953125 51.613281 195.765625 C 51.691406 195.578125 51.730469 195.382812 51.730469 195.179688 L 51.730469 181.449219 C 51.730469 181.246094 51.691406 181.050781 51.613281 180.863281 C 51.535156 180.675781 51.425781 180.511719 51.28125 180.367188 C 51.136719 180.226562 50.972656 180.113281 50.785156 180.039062 C 50.601562 179.960938 50.40625 179.921875 50.203125 179.921875 Z M 36.46875 173.816406 C 36.46875 173.515625 36.5 173.21875 36.558594 172.925781 C 36.617188 172.628906 36.703125 172.34375 36.816406 172.066406 C 36.933594 171.789062 37.074219 171.523438 37.242188 171.273438 C 37.40625 171.023438 37.597656 170.792969 37.808594 170.582031 C 38.023438 170.367188 38.253906 170.179688 38.503906 170.011719 C 38.753906 169.84375 39.015625 169.703125 39.296875 169.589844 C 39.574219 169.472656 39.859375 169.386719 40.152344 169.328125 C 40.449219 169.269531 40.746094 169.238281 41.046875 169.238281 C 41.347656 169.238281 41.644531 169.269531 41.941406 169.328125 C 42.234375 169.386719 42.519531 169.472656 42.800781 169.589844 C 43.078125 169.703125 43.339844 169.84375 43.589844 170.011719 C 43.839844 170.179688 44.070312 170.367188 44.285156 170.582031 C 44.496094 170.792969 44.6875 171.023438 44.851562 171.273438 C 45.019531 171.523438 45.160156 171.789062 45.277344 172.066406 C 45.390625 172.34375 45.476562 172.628906 45.535156 172.925781 C 45.59375 173.21875 45.625 173.515625 45.625 173.816406 L 45.625 179.921875 L 36.46875 179.921875 Z M 48.675781 193.65625 L 33.417969 193.65625 L 33.417969 182.972656 L 48.675781 182.972656 Z M 48.675781 193.65625 " fill-opacity="1" fill-rule="nonzero"/><g fill="#ffffff" fill-opacity="1"><g transform="translate(83.803671, 211.855117)"><g><path d="M 13.1875 -20.828125 L 13.1875 0 L 6.171875 0 L 6.171875 -53.203125 L 25.796875 -53.203125 C 31.617188 -53.203125 36.175781 -51.710938 39.46875 -48.734375 C 42.769531 -45.765625 44.421875 -41.832031 44.421875 -36.9375 C 44.421875 -31.769531 42.804688 -27.789062 39.578125 -25 C 36.359375 -22.21875 31.738281 -20.828125 25.71875 -20.828125 Z M 13.1875 -26.5625 L 25.796875 -26.5625 C 29.546875 -26.5625 32.421875 -27.441406 34.421875 -29.203125 C 36.421875 -30.972656 37.421875 -33.523438 37.421875 -36.859375 C 37.421875 -40.023438 36.421875 -42.554688 34.421875 -44.453125 C 32.421875 -46.359375 29.679688 -47.347656 26.203125 -47.421875 L 13.1875 -47.421875 Z M 13.1875 -26.5625 "/></g></g></g><g fill="#ffffff" fill-opacity="1"><g transform="translate(131.009066, 211.855117)"><g><path d="M 29.515625 0 C 29.128906 -0.78125 28.816406 -2.171875 28.578125 -4.171875 C 25.429688 -0.898438 21.675781 0.734375 17.3125 0.734375 C 13.414062 0.734375 10.21875 -0.363281 7.71875 -2.5625 C 5.226562 -4.769531 3.984375 -7.570312 3.984375 -10.96875 C 3.984375 -15.082031 5.546875 -18.273438 8.671875 -20.546875 C 11.804688 -22.828125 16.210938 -23.96875 21.890625 -23.96875 L 28.46875 -23.96875 L 28.46875 -27.078125 C 28.46875 -29.441406 27.757812 -31.320312 26.34375 -32.71875 C 24.925781 -34.113281 22.84375 -34.8125 20.09375 -34.8125 C 17.6875 -34.8125 15.664062 -34.203125 14.03125 -32.984375 C 12.394531 -31.773438 11.578125 -30.304688 11.578125 -28.578125 L 4.78125 -28.578125 C 4.78125 -30.546875 5.476562 -32.445312 6.875 -34.28125 C 8.28125 -36.125 10.179688 -37.582031 12.578125 -38.65625 C 14.984375 -39.726562 17.625 -40.265625 20.5 -40.265625 C 25.050781 -40.265625 28.617188 -39.125 31.203125 -36.84375 C 33.785156 -34.570312 35.125 -31.4375 35.21875 -27.4375 L 35.21875 -9.25 C 35.21875 -5.613281 35.679688 -2.722656 36.609375 -0.578125 L 36.609375 0 Z M 18.3125 -5.15625 C 20.425781 -5.15625 22.429688 -5.703125 24.328125 -6.796875 C 26.234375 -7.890625 27.613281 -9.316406 28.46875 -11.078125 L 28.46875 -19.1875 L 23.171875 -19.1875 C 14.878906 -19.1875 10.734375 -16.757812 10.734375 -11.90625 C 10.734375 -9.789062 11.441406 -8.132812 12.859375 -6.9375 C 14.273438 -5.75 16.09375 -5.15625 18.3125 -5.15625 Z M 18.3125 -5.15625 "/></g></g></g><g fill="#ffffff" fill-opacity="1"><g transform="translate(171.710931, 211.855117)"><g><path d="M 12.453125 0 L 5.703125 0 L 5.703125 -56.125 L 12.453125 -56.125 Z M 12.453125 0 "/></g></g></g><g fill="#ffffff" fill-opacity="1"><g transform="translate(189.869668, 211.855117)"><g><path d="M 12.453125 0 L 5.703125 0 L 5.703125 -39.53125 L 12.453125 -39.53125 Z M 5.15625 -50.015625 C 5.15625 -51.109375 5.488281 -52.03125 6.15625 -52.78125 C 6.820312 -53.539062 7.8125 -53.921875 9.125 -53.921875 C 10.445312 -53.921875 11.445312 -53.539062 12.125 -52.78125 C 12.8125 -52.03125 13.15625 -51.109375 13.15625 -50.015625 C 13.15625 -48.921875 12.8125 -48.007812 12.125 -47.28125 C 11.445312 -46.550781 10.445312 -46.1875 9.125 -46.1875 C 7.8125 -46.1875 6.820312 -46.550781 6.15625 -47.28125 C 5.488281 -48.007812 5.15625 -48.921875 5.15625 -50.015625 Z M 5.15625 -50.015625 "/></g></g></g><g fill="#ffffff" fill-opacity="1"><g transform="translate(208.028405, 211.855117)"><g><path d="M 28.140625 -10.484375 C 28.140625 -12.304688 27.445312 -13.722656 26.0625 -14.734375 C 24.6875 -15.753906 22.285156 -16.628906 18.859375 -17.359375 C 15.441406 -18.085938 12.726562 -18.960938 10.71875 -19.984375 C 8.707031 -21.003906 7.222656 -22.222656 6.265625 -23.640625 C 5.304688 -25.054688 4.828125 -26.738281 4.828125 -28.6875 C 4.828125 -31.925781 6.195312 -34.664062 8.9375 -36.90625 C 11.675781 -39.144531 15.175781 -40.265625 19.4375 -40.265625 C 23.914062 -40.265625 27.550781 -39.109375 30.34375 -36.796875 C 33.132812 -34.484375 34.53125 -31.523438 34.53125 -27.921875 L 27.734375 -27.921875 C 27.734375 -29.765625 26.945312 -31.351562 25.375 -32.6875 C 23.800781 -34.03125 21.820312 -34.703125 19.4375 -34.703125 C 16.976562 -34.703125 15.050781 -34.164062 13.65625 -33.09375 C 12.269531 -32.03125 11.578125 -30.632812 11.578125 -28.90625 C 11.578125 -27.269531 12.222656 -26.035156 13.515625 -25.203125 C 14.804688 -24.378906 17.140625 -23.585938 20.515625 -22.828125 C 23.890625 -22.078125 26.625 -21.175781 28.71875 -20.125 C 30.8125 -19.082031 32.363281 -17.820312 33.375 -16.34375 C 34.382812 -14.875 34.890625 -13.082031 34.890625 -10.96875 C 34.890625 -7.425781 33.476562 -4.585938 30.65625 -2.453125 C 27.832031 -0.328125 24.164062 0.734375 19.65625 0.734375 C 16.488281 0.734375 13.6875 0.175781 11.25 -0.9375 C 8.8125 -2.0625 6.90625 -3.628906 5.53125 -5.640625 C 4.15625 -7.648438 3.46875 -9.828125 3.46875 -12.171875 L 10.234375 -12.171875 C 10.347656 -9.898438 11.25 -8.097656 12.9375 -6.765625 C 14.632812 -5.441406 16.875 -4.78125 19.65625 -4.78125 C 22.21875 -4.78125 24.269531 -5.296875 25.8125 -6.328125 C 27.363281 -7.367188 28.140625 -8.753906 28.140625 -10.484375 Z M 28.140625 -10.484375 "/></g></g></g><g fill="#ffffff" fill-opacity="1"><g transform="translate(246.611143, 211.855117)"><g><path d="M 29.515625 0 C 29.128906 -0.78125 28.816406 -2.171875 28.578125 -4.171875 C 25.429688 -0.898438 21.675781 0.734375 17.3125 0.734375 C 13.414062 0.734375 10.21875 -0.363281 7.71875 -2.5625 C 5.226562 -4.769531 3.984375 -7.570312 3.984375 -10.96875 C 3.984375 -15.082031 5.546875 -18.273438 8.671875 -20.546875 C 11.804688 -22.828125 16.210938 -23.96875 21.890625 -23.96875 L 28.46875 -23.96875 L 28.46875 -27.078125 C 28.46875 -29.441406 27.757812 -31.320312 26.34375 -32.71875 C 24.925781 -34.113281 22.84375 -34.8125 20.09375 -34.8125 C 17.6875 -34.8125 15.664062 -34.203125 14.03125 -32.984375 C 12.394531 -31.773438 11.578125 -30.304688 11.578125 -28.578125 L 4.78125 -28.578125 C 4.78125 -30.546875 5.476562 -32.445312 6.875 -34.28125 C 8.28125 -36.125 10.179688 -37.582031 12.578125 -38.65625 C 14.984375 -39.726562 17.625 -40.265625 20.5 -40.265625 C 25.050781 -40.265625 28.617188 -39.125 31.203125 -36.84375 C 33.785156 -34.570312 35.125 -31.4375 35.21875 -27.4375 L 35.21875 -9.25 C 35.21875 -5.613281 35.679688 -2.722656 36.609375 -0.578125 L 36.609375 0 Z M 18.3125 -5.15625 C 20.425781 -5.15625 22.429688 -5.703125 24.328125 -6.796875 C 26.234375 -7.890625 27.613281 -9.316406 28.46875 -11.078125 L 28.46875 -19.1875 L 23.171875 -19.1875 C 14.878906 -19.1875 10.734375 -16.757812 10.734375 -11.90625 C 10.734375 -9.789062 11.441406 -8.132812 12.859375 -6.9375 C 14.273438 -5.75 16.09375 -5.15625 18.3125 -5.15625 Z M 18.3125 -5.15625 "/></g></g></g><g fill="#ffffff" fill-opacity="1"><g transform="translate(287.313007, 211.855117)"><g><path d="M 3.46875 -20.09375 C 3.46875 -26.15625 4.90625 -31.03125 7.78125 -34.71875 C 10.65625 -38.414062 14.421875 -40.265625 19.078125 -40.265625 C 23.703125 -40.265625 27.363281 -38.679688 30.0625 -35.515625 L 30.0625 -56.125 L 36.828125 -56.125 L 36.828125 0 L 30.625 0 L 30.296875 -4.234375 C 27.585938 -0.921875 23.820312 0.734375 19 0.734375 C 14.414062 0.734375 10.679688 -1.140625 7.796875 -4.890625 C 4.910156 -8.640625 3.46875 -13.535156 3.46875 -19.578125 Z M 10.234375 -19.328125 C 10.234375 -14.847656 11.15625 -11.335938 13 -8.796875 C 14.851562 -6.265625 17.414062 -5 20.6875 -5 C 24.96875 -5 28.09375 -6.925781 30.0625 -10.78125 L 30.0625 -28.9375 C 28.039062 -32.664062 24.9375 -34.53125 20.75 -34.53125 C 17.4375 -34.53125 14.851562 -33.25 13 -30.6875 C 11.15625 -28.132812 10.234375 -24.347656 10.234375 -19.328125 Z M 10.234375 -19.328125 "/></g></g></g><g fill="#ffffff" fill-opacity="1"><g transform="translate(329.512871, 211.855117)"><g><path d="M 21.515625 0.734375 C 16.160156 0.734375 11.800781 -1.023438 8.4375 -4.546875 C 5.070312 -8.066406 3.390625 -12.773438 3.390625 -18.671875 L 3.390625 -19.90625 C 3.390625 -23.832031 4.140625 -27.335938 5.640625 -30.421875 C 7.140625 -33.503906 9.234375 -35.914062 11.921875 -37.65625 C 14.617188 -39.394531 17.539062 -40.265625 20.6875 -40.265625 C 25.820312 -40.265625 29.8125 -38.570312 32.65625 -35.1875 C 35.507812 -31.800781 36.9375 -26.953125 36.9375 -20.640625 L 36.9375 -17.828125 L 10.15625 -17.828125 C 10.25 -13.929688 11.382812 -10.78125 13.5625 -8.375 C 15.75 -5.976562 18.523438 -4.78125 21.890625 -4.78125 C 24.273438 -4.78125 26.296875 -5.265625 27.953125 -6.234375 C 29.609375 -7.210938 31.054688 -8.507812 32.296875 -10.125 L 36.421875 -6.90625 C 33.109375 -1.8125 28.140625 0.734375 21.515625 0.734375 Z M 20.6875 -34.703125 C 17.957031 -34.703125 15.664062 -33.707031 13.8125 -31.71875 C 11.957031 -29.738281 10.8125 -26.960938 10.375 -23.390625 L 30.1875 -23.390625 L 30.1875 -23.890625 C 29.988281 -27.328125 29.0625 -29.988281 27.40625 -31.875 C 25.75 -33.757812 23.507812 -34.703125 20.6875 -34.703125 Z M 20.6875 -34.703125 "/></g></g></g></svg>